<svg width="60" height="68" viewBox="0 0 60 68" fill="none" xmlns="http://www.w3.org/2000/svg">
<path fill-rule="evenodd" clip-rule="evenodd" d="M0 19.2C0 12.4794 0 9.11905 1.30792 6.55211C2.4584 4.29417 4.29417 2.4584 6.55211 1.30792C9.11905 0 12.4794 0 19.2 0H40.8C47.5206 0 50.8809 0 53.4479 1.30792C55.7058 2.4584 57.5416 4.29417 58.6921 6.55211C60 9.11905 60 12.4794 60 19.2V40.8C60 47.5206 60 50.8809 58.6921 53.4479C57.5416 55.7058 55.7058 57.5416 53.4479 58.6921C50.8809 60 47.5206 60 40.8 60H19.2C12.4794 60 9.11905 60 6.55211 58.6921C4.29417 57.5416 2.4584 55.7058 1.30792 53.4479C0 50.8809 0 47.5206 0 40.8V19.2ZM17.5 30C17.5 32.7614 15.2614 35 12.5 35C9.73858 35 7.5 32.7614 7.5 30C7.5 27.2386 9.73858 25 12.5 25C15.2614 25 17.5 27.2386 17.5 30ZM27.5 35C30.2614 35 32.5 32.7614 32.5 30C32.5 27.2386 30.2614 25 27.5 25C24.7386 25 22.5 27.2386 22.5 30C22.5 32.7614 24.7386 35 27.5 35ZM47.5 30C47.5 32.7614 45.2614 35 42.5 35C39.7386 35 37.5 32.7614 37.5 30C37.5 27.2386 39.7386 25 42.5 25C45.2614 25 47.5 27.2386 47.5 30ZM53.5 20C52.9477 20 52.5 20.4477 52.5 21V39C52.5 39.5523 52.9477 40 53.5 40H54C54.5523 40 55 39.5523 55 39V21C55 20.4477 54.5523 20 54 20H53.5Z" fill="#DD2222"/>
</svg>
